                                                                        S      1
,,18HPump Syringe Brace,18HPump Syringe Brace,7Hunknown,7Hunknown,32,38,G      1
7,99,15,,1.,2,2HMM,1,0.08,15H20190120.162015,0.01,10000.,7Hunknown,7HunkG      2
nown,11,0,;                                                             G      3
     186       1                                                00000000D      1
     186            -139       1       0                               0D      2
     514       2                                                00010000D      3
     514                       1       1                               0D      4
     510       3                                                00010000D      5
     510            -139       1       1                               0D      6
     510       4                                                00010000D      7
     510            -139       1       1                               0D      8
     510       5                                                00010000D      9
     510            -139       1       1                               0D     10
     510       6                                                00010000D     11
     510            -139       1       1                               0D     12
     510       7                                                00010000D     13
     510            -139       1       1                               0D     14
     510       8                                                00010000D     15
     510            -139       1       1                               0D     16
     510       9                                                00010000D     17
     510            -139       1       1                               0D     18
     510      10                                                00010000D     19
     510            -139       1       1                               0D     20
     510      11                                                00010000D     21
     510            -139       1       1                               0D     22
     510      12                                                00010000D     23
     510            -139       1       1                               0D     24
     510      13                                                00010000D     25
     510            -139       1       1                               0D     26
     510      14                                                00010000D     27
     510            -139       1       1                               0D     28
     508      15                                                00010000D     29
     508                       1       1                               0D     30
     508      16                                                00010000D     31
     508                       1       1                               0D     32
     508      17                                                00010000D     33
     508                       1       1                               0D     34
     508      18                                                00010000D     35
     508                       1       1                               0D     36
     508      19                                                00010000D     37
     508                       1       1                               0D     38
     508      20                                                00010000D     39
     508                       1       1                               0D     40
     508      21                                                00010000D     41
     508                       1       1                               0D     42
     508      22                                                00010000D     43
     508                       1       1                               0D     44
     508      23                                                00010000D     45
     508                       1       1                               0D     46
     508      24                                                00010000D     47
     508                       1       1                               0D     48
     508      25                                                00010000D     49
     508                       1       1                               0D     50
     508      26                                                00010000D     51
     508                       2       1                               0D     52
     508      28                                                00010000D     53
     508                       2       1                               0D     54
     126      30                                                00010000D     55
     126       0               5       0                               0D     56
     126      35                                                00010000D     57
     126       0               4       0                               0D     58
     126      39                                                00010000D     59
     126       0               4       0                               0D     60
     126      43                                                00010000D     61
     126       0               4       0                               0D     62
     126      47                                                00010000D     63
     126       0              15       0                               0D     64
     126      62                                                00010000D     65
     126       0               4       0                               0D     66
     126      66                                                00010000D     67
     126       0              48       0                               0D     68
     126     114                                                00010000D     69
     126       0               5       0                               0D     70
     126     119                                                00010000D     71
     126       0               4       0                               0D     72
     126     123                                                00010000D     73
     126       0               4       0                               0D     74
     126     127                                                00010000D     75
     126       0               4       0                               0D     76
     126     131                                                00010000D     77
     126       0               4       0                               0D     78
     126     135                                                00010000D     79
     126       0               4       0                               0D     80
     126     139                                                00010000D     81
     126       0               7       0                               0D     82
     126     146                                                00010000D     83
     126       0               3       0                               0D     84
     126     149                                                00010000D     85
     126       0               7       0                               0D     86
     126     156                                                00010000D     87
     126       0               5       0                               0D     88
     126     161                                                00010000D     89
     126       0               3       0                               0D     90
     126     164                                                00010000D     91
     126       0               5       0                               0D     92
     126     169                                                00010000D     93
     126       0               3       0                               0D     94
     126     172                                                00010000D     95
     126       0               3       0                               0D     96
     126     175                                                00010000D     97
     126       0               3       0                               0D     98
     126     178                                                00010000D     99
     126       0               5       0                               0D    100
     126     183                                                00010000D    101
     126       0               6       0                               0D    102
     126     189                                                00010000D    103
     126       0               3       0                               0D    104
     126     192                                                00010000D    105
     126       0               3       0                               0D    106
     126     195                                                00010000D    107
     126       0               3       0                               0D    108
     128     198                                                00010000D    109
     128       0    -139       8       0                               0D    110
     128     206                                                00010000D    111
     128       0    -139      26       0                               0D    112
     128     232                                                00010000D    113
     128       0    -139       8       0                               0D    114
     128     240                                                00010000D    115
     128       0    -139       9       0                               0D    116
     128     249                                                00010000D    117
     128       0    -139      12       0                               0D    118
     128     261                                                00010000D    119
     128       0    -139      12       0                               0D    120
     128     273                                                00010000D    121
     128       0    -139      12       0                               0D    122
     128     285                                                00010000D    123
     128       0    -139       7       0                               0D    124
     128     292                                                00010000D    125
     128       0    -139      13       0                               0D    126
     128     305                                                00010000D    127
     128       0    -139       7       0                               0D    128
     128     312                                                00010000D    129
     128       0    -139       8       0                               0D    130
     128     320                                                00010000D    131
     128       0    -139       7       0                               0D    132
     502     327                                                00010000D    133
     502                      18       1                               0D    134
     504     345                                                00010001D    135
     504                       8       1                               0D    136
     406     353                                                00000000D    137
     406                       1      15                               0D    138
     314     354                                                00000200D    139
     314                       2       0                               0D    140
     314     356                                                00000200D    141
     314                       2       0                               0D    142
186,3,1,0,0,1,137;                                                     1P      1
514,12,5,1,7,1,9,1,11,1,13,1,15,1,17,1,19,1,21,1,23,1,25,1,27,1;       3P      2
510,109,1,1,29;                                                        5P      3
510,111,1,1,31;                                                        7P      4
510,113,1,1,33;                                                        9P      5
510,115,2,1,35,37;                                                    11P      6
510,117,1,1,39;                                                       13P      7
510,119,1,1,41;                                                       15P      8
510,121,1,1,43;                                                       17P      9
510,123,1,1,45;                                                       19P     10
510,125,1,1,47;                                                       21P     11
510,127,1,1,49;                                                       23P     12
510,129,1,1,51;                                                       25P     13
510,131,1,1,53;                                                       27P     14
508,4,0,135,1,0,0,0,135,2,1,0,0,135,3,0,0,0,135,4,0,0;                29P     15
508,4,0,135,5,0,0,0,135,6,1,0,0,135,7,0,0,0,135,6,0,0;                31P     16
508,4,0,135,8,0,0,0,135,9,1,0,0,135,10,0,0,0,135,11,1,0;              33P     17
508,4,0,135,10,1,0,0,135,12,1,0,0,135,3,1,0,0,135,13,1,0;             35P     18
508,1,0,135,5,1,0;                                                    37P     19
508,4,0,135,1,1,0,0,135,14,1,0,0,135,15,1,0,0,135,16,0,0;             39P     20
508,4,0,135,8,1,0,0,135,17,0,0,0,135,18,0,0,0,135,19,1,0;             41P     21
508,1,0,135,7,1,0;                                                    43P     22
508,4,0,135,20,0,0,0,135,18,1,0,0,135,21,0,0,0,135,22,0,0;            45P     23
508,4,0,135,23,0,0,0,135,22,1,0,0,135,24,0,0,0,135,25,0,0;            47P     24
508,4,0,135,26,1,0,0,135,25,1,0,0,135,27,0,0,0,135,15,0,0;            49P     25
508,8,0,135,16,1,0,0,135,27,1,0,0,135,24,1,0,0,135,21,1,0,0,135,      51P     26
17,1,0,0,135,11,0,0,0,135,13,0,0,0,135,2,0,0;                         51P     27
508,8,0,135,19,0,0,0,135,20,1,0,0,135,23,1,0,0,135,26,0,0,0,135,      53P     28
14,0,0,0,135,4,1,0,0,135,12,0,0,0,135,9,0,0;                          53P     29
126,1,1,0,0,1,0,-0.700000002235174,-0.700000002235174,                55P     30
2.23517415687269D-9,2.23517415687269D-9,1.,1.,2.93047867507982,       55P     31
8.36144073925586,13.6802376644418,2.93047867507982,                   55P     32
8.36144073925584,6.68023761973827,-0.700000002235174,                 55P     33
2.23517415687269D-9,0.,0.,0.;                                         55P     34
126,1,1,0,0,1,0,-0.0343556427328815,-0.0343556427328815,0.4,0.4,      57P     35
1.,1.,2.93047867507982,8.36144073925586,13.6802376644418,             57P     36
2.93047867507982,12.7049971665847,13.6802376644417,                   57P     37
-0.0343556427328815,0.4,0.,0.,0.;                                     57P     38
126,1,1,0,0,1,0,0.,0.,0.700000004470348,0.700000004470348,1.,1.,      59P     39
2.93047867507982,12.7049971665847,6.68023761973826,                   59P     40
2.93047867507983,12.7049971665847,13.6802376644417,0.,                59P     41
0.700000004470348,0.,0.,0.;                                           59P     42
126,1,1,0,0,1,0,-0.0343556427328815,-0.0343556427328815,0.4,0.4,      61P     43
1.,1.,2.93047867507982,8.36144073925584,6.68023761973827,             61P     44
2.93047867507982,12.7049971665847,6.68023761973826,                   61P     45
-0.0343556427328815,0.4,0.,0.,0.;                                     61P     46
126,8,2,0,1,0,0,-3.14159265358979,-3.14159265358979,                  63P     47
-3.14159265358979,-1.5707963267949,-1.5707963267949,0.,0.,            63P     48
1.5707963267949,1.5707963267949,3.14159265358979,                     63P     49
3.14159265358979,3.14159265358979,1.,0.707106781186547,1.,            63P     50
0.707106781186549,1.,0.707106781186546,1.,0.707106781186549,1.,       63P     51
3.93047872723389,12.7049971665847,10.18023764209,                     63P     52
3.93047872723389,12.7049971665847,7.68023764209,                      63P     53
6.43047872723389,12.7049971665847,7.68023764209,                      63P     54
8.93047872723389,12.7049971665847,7.68023764209,                      63P     55
8.93047872723389,12.7049971665847,10.18023764209,                     63P     56
8.93047872723389,12.7049971665847,12.68023764209,                     63P     57
6.43047872723389,12.7049971665847,12.68023764209,                     63P     58
3.93047872723389,12.7049971665847,12.68023764209,                     63P     59
3.93047872723389,12.7049971665847,10.18023764209,                     63P     60
-3.14159265358979,3.14159265358979,0.,0.,0.;                          63P     61
126,1,1,0,0,1,0,-1.6,-1.6,0.0697826120096441,0.0697826120096441,      65P     62
1.,1.,3.93047872723389,12.7049971665847,10.18023764209,               65P     63
3.93047872723389,8.53054063656056,10.18023764209,-1.6,                65P     64
0.0697826120096441,0.,0.,0.;                                          65P     65
126,33,3,0,1,1,1,0.,0.,0.,0.,0.0943033085578755,                      67P     66
0.0943033085578755,0.188606617115751,0.188606617115751,               67P     67
0.282908720749527,0.282908720749527,0.377210824383303,                67P     68
0.377210824383303,0.47151292801708,0.47151292801708,                  67P     69
0.565815031650856,0.565815031650856,0.660118340208731,                67P     70
0.660118340208731,0.754421648766607,0.754421648766607,                67P     71
0.848724957324482,0.848724957324482,0.943028265882358,                67P     72
0.943028265882358,1.03733036951613,1.03733036951613,                  67P     73
1.13163247314991,1.13163247314991,1.22593457678369,                   67P     74
1.22593457678369,1.32023668041746,1.32023668041746,                   67P     75
1.41453998897534,1.41453998897534,1.50884329753321,                   67P     76
1.50884329753321,1.50884329753321,1.50884329753321,1.,1.,1.,1.,       67P     77
1.,1.,1.,1.,1.,1.,1.,1.,1.,1.,1.,1.,1.,1.,1.,1.,1.,1.,1.,1.,1.,       67P     78
1.,1.,1.,1.,1.,1.,1.,1.,1.,3.93047872723389,8.53054063656055,         67P     79
10.18023764209,3.93047872723389,8.53054063656056,                     67P     80
10.4945820039496,3.99338383855572,8.53971416961069,                   67P     81
10.8295974295316,4.24864342695134,8.57273783679884,                   67P     82
11.4454232078609,4.44097595973277,8.59609898688883,                   67P     83
11.7262687805216,4.88444475565854,8.63986330203361,                   67P     84
12.1697375764474,5.16529155484228,8.66312574307,                      67P     85
12.3620723308763,5.78112150710412,8.69592309462094,                   67P     86
12.6173335404705,6.11613838178797,8.70499716658467,                   67P     87
12.68023764209,6.74481907267981,8.70499716658467,12.68023764209,      67P     88
7.07983594736365,8.69592309462094,12.6173335404705,                   67P     89
7.69566589962549,8.66312574307,12.3620723308763,                      67P     90
7.97651269880923,8.63986330203361,12.1697375764474,                   67P     91
8.419981494735,8.59609898688883,11.7262687805216,                     67P     92
8.61231402751643,8.57273783679884,11.4454232078609,                   67P     93
8.86757361591206,8.53971416961068,10.8295974295316,                   67P     94
8.93047872723389,8.53054063656055,10.4945820039496,                   67P     95
8.93047872723388,8.53054063656055,9.86589328023042,                   67P     96
8.86757361591205,8.53971416961068,9.53087785464841,                   67P     97
8.61231402751643,8.57273783679883,8.91505207631915,                   67P     98
8.419981494735,8.59609898688882,8.63420650365839,                     67P     99
7.97651269880923,8.63986330203361,8.19073770773261,                   67P    100
7.69566589962548,8.66312574306999,7.99840295330372,                   67P    101
7.07983594736365,8.69592309462093,7.7431417437095,                    67P    102
6.7448190726798,8.70499716658466,7.68023764209001,                    67P    103
6.11613838178796,8.70499716658466,7.68023764209001,                   67P    104
5.78112150710412,8.69592309462093,7.7431417437095,                    67P    105
5.16529155484229,8.66312574306999,7.99840295330372,                   67P    106
4.88444475565855,8.63986330203361,8.19073770773261,                   67P    107
4.44097595973277,8.59609898688882,8.63420650365839,                   67P    108
4.24864342695134,8.57273783679883,8.91505207631915,                   67P    109
3.99338383855572,8.53971416961068,9.53087785464841,                   67P    110
3.93047872723389,8.53054063656055,9.86589328023042,                   67P    111
3.93047872723389,8.53054063656056,10.18023764209,0.,                  67P    112
1.50884329753321,0.,0.,0.;                                            67P    113
126,1,1,0,0,1,0,-2.23517415687269D-9,-2.23517415687269D-9,            69P    114
0.700000002235174,0.700000002235174,1.,1.,9.93047877938795,           69P    115
8.36144073925584,6.68023761973827,9.93047877938795,                   69P    116
8.36144073925585,13.6802376644417,-2.23517415687269D-9,               69P    117
0.700000002235174,0.,0.,0.;                                           69P    118
126,1,1,0,0,1,0,-0.0343556427328815,-0.0343556427328815,0.4,0.4,      71P    119
1.,1.,9.93047877938795,8.36144073925584,6.68023761973827,             71P    120
9.93047877938795,12.7049971665847,6.68023761973826,                   71P    121
-0.0343556427328815,0.4,0.,0.,0.;                                     71P    122
126,1,1,0,0,1,0,0.,0.,0.700000004470348,0.700000004470348,1.,1.,      73P    123
9.93047877938795,12.7049971665847,13.6802376644417,                   73P    124
9.93047877938795,12.7049971665847,6.68023761973826,0.,                73P    125
0.700000004470348,0.,0.,0.;                                           73P    126
126,1,1,0,0,1,0,-0.4,-0.4,0.0343556427328815,0.0343556427328815,      75P    127
1.,1.,9.93047877938795,12.7049971665847,13.6802376644417,             75P    128
9.93047877938795,8.36144073925585,13.6802376644417,-0.4,              75P    129
0.0343556427328815,0.,0.,0.;                                          75P    130
126,1,1,0,0,1,0,0.,0.,0.700000010430813,0.700000010430813,1.,1.,      77P    131
9.93047877938795,12.7049971665847,6.68023761973826,                   77P    132
2.93047867507982,12.7049971665847,6.68023761973826,0.,                77P    133
0.700000010430813,0.,0.,0.;                                           77P    134
126,1,1,0,0,1,0,0.,0.,0.700000010430813,0.700000010430813,1.,1.,      79P    135
2.93047867507982,12.7049971665847,13.6802376644417,                   79P    136
9.93047877938795,12.7049971665847,13.6802376644417,0.,                79P    137
0.700000010430813,0.,0.,0.;                                           79P    138
126,2,2,0,0,0,0,0.535527965273185,0.535527965273185,                  81P    139
0.535527965273185,0.679673818908241,0.679673818908241,                81P    140
0.679673818908241,1.,0.997403870702908,1.,2.93047867507982,           81P    141
8.36144073925585,6.68023764209001,1.65571909576662,                   81P    142
8.1087478016483,6.68023764209001,0.430478727233887,                   81P    143
7.67555991506181,6.68023764209001,0.535527965273185,                  81P    144
0.679673818908241,0.,0.,0.;                                           81P    145
126,1,1,0,0,1,0,0.,0.,0.7,0.7,1.,1.,0.430478727233887,                83P    146
7.67555991506181,6.68023764209001,0.430478727233889,                  83P    147
7.67555991506182,13.68023764209,0.,0.7,0.,0.,0.;                      83P    148
126,2,2,0,0,0,0,0.535527965273185,0.535527965273185,                  85P    149
0.535527965273185,0.679673818908241,0.679673818908241,                85P    150
0.679673818908241,1.,0.997403870702908,1.,2.93047867507982,           85P    151
8.36144073925586,13.68023764209,1.65571909576662,                     85P    152
8.10874780164831,13.68023764209,0.430478727233891,                    85P    153
7.67555991506182,13.68023764209,0.535527965273185,                    85P    154
0.679673818908241,0.,0.,0.;                                           85P    155
126,2,2,0,0,0,0,0.,0.,0.,0.144145853635056,0.144145853635056,         87P    156
0.144145853635056,1.,0.997403870702911,1.,12.4304787272339,           87P    157
7.67555991506181,13.68023764209,11.2052383587012,                     87P    158
8.10874780164831,13.68023764209,9.93047877938795,                     87P    159
8.36144073925585,13.68023764209,0.,0.144145853635056,0.,0.,0.;        87P    160
126,1,1,0,0,1,0,0.,0.,0.7,0.7,1.,1.,12.4304787272339,                 89P    161
7.6755599150618,6.68023764209001,12.4304787272339,                    89P    162
7.67555991506181,13.68023764209,0.,0.7,0.,0.,0.;                      89P    163
126,2,2,0,0,0,0,0.,0.,0.,0.144145853635056,0.144145853635056,         91P    164
0.144145853635056,1.,0.997403870702877,1.,12.4304787272339,           91P    165
7.6755599150618,6.68023764209001,11.2052383587012,                    91P    166
8.1087478016483,6.68023764209001,9.93047877938795,                    91P    167
8.36144073925584,6.68023764209001,0.,0.144145853635056,0.,0.,0.;      91P    168
126,1,1,0,0,1,0,0.,0.,0.3,0.3,1.,1.,12.4304787272339,                 93P    169
7.6755599150618,6.68023764209001,11.4304787272339,                    93P    170
4.84713279031561,6.68023764209001,0.,0.3,0.,0.,0.;                    93P    171
126,1,1,0,0,1,0,-0.3,-0.3,0.,0.,1.,1.,11.4304787272339,               95P    172
4.84713279031562,13.68023764209,12.4304787272339,                     95P    173
7.67555991506181,13.68023764209,-0.3,0.,0.,0.,0.;                     95P    174
126,1,1,0,0,1,0,0.,0.,0.7,0.7,1.,1.,11.4304787272339,                 97P    175
4.84713279031561,6.68023764209001,11.4304787272339,                   97P    176
4.84713279031562,13.68023764209,0.,0.7,0.,0.,0.;                      97P    177
126,2,2,0,0,0,0,0.,0.,0.,0.679673818908241,0.679673818908241,         99P    178
0.679673818908241,1.,0.942809041582066,1.,11.4304787272339,           99P    179
4.84713279031561,6.68023764209001,6.43047872723388,                   99P    180
6.61489974328197,6.68023764209001,1.43047872723388,                   99P    181
4.84713279031562,6.68023764209002,0.,0.679673818908241,0.,0.,0.;      99P    182
126,2,2,0,0,0,0,-0.679673818908241,-0.679673818908241,               101P    183
-0.679673818908241,0.,0.,0.,1.,0.942809041582066,1.,                 101P    184
1.43047872723388,4.84713279031563,13.68023764209,                    101P    185
6.43047872723389,6.61489974328198,13.68023764209,                    101P    186
11.4304787272339,4.84713279031562,13.68023764209,                    101P    187
-0.679673818908241,0.,0.,0.,0.;                                      101P    188
126,1,1,0,0,1,0,0.,0.,0.7,0.7,1.,1.,1.43047872723388,                103P    189
4.84713279031561,6.68023764209002,1.43047872723388,                  103P    190
4.84713279031563,13.68023764209,0.,0.7,0.,0.,0.;                     103P    191
126,1,1,0,0,1,0,0.,0.,0.3,0.3,1.,1.,0.430478727233887,               105P    192
7.67555991506181,6.68023764209001,1.43047872723388,                  105P    193
4.84713279031561,6.68023764209001,0.,0.3,0.,0.,0.;                   105P    194
126,1,1,0,0,1,0,0.,0.,0.3,0.3,1.,1.,0.430478727233889,               107P    195
7.67555991506182,13.68023764209,1.43047872723388,                    107P    196
4.84713279031563,13.68023764209,0.,0.3,0.,0.,0.;                     107P    197
128,1,1,1,1,0,0,1,0,0,-0.00100000000000004,-0.00100000000000004,     109P    198
0.701000004470349,0.701000004470349,-0.0353556427328815,             109P    199
-0.0353556427328815,0.401,0.401,1.,1.,1.,1.,2.93047867507982,        109P    200
8.35144073925584,6.67023761973827,2.93047867507982,                  109P    201
8.35144073925586,13.6902376644418,2.93047867507982,                  109P    202
12.7149971665847,6.67023761973826,2.93047867507982,                  109P    203
12.7149971665847,13.6902376644417,-0.00100000000000004,              109P    204
0.701000004470349,-0.0353556427328815,0.401;                         109P    205
128,1,8,1,2,0,1,0,0,1,-0.0697826120096441,-0.0697826120096441,       111P    206
1.6,1.6,-3.14159265358979,-3.14159265358979,-3.14159265358979,       111P    207
-1.5707963267949,-1.5707963267949,0.,0.,1.5707963267949,             111P    208
1.5707963267949,3.14159265358979,3.14159265358979,                   111P    209
3.14159265358979,1.,1.,0.707106781186548,0.707106781186548,1.,       111P    210
1.,0.707106781186548,0.707106781186548,1.,1.,0.707106781186548,      111P    211
0.707106781186548,1.,1.,0.707106781186548,0.707106781186548,1.,      111P    212
1.,3.93047872723389,8.53054063656056,10.18023764209,                 111P    213
3.93047872723389,12.7049971665847,10.18023764209,                    111P    214
3.93047872723389,8.53054063656056,12.68023764209,                    111P    215
3.93047872723389,12.7049971665847,12.68023764209,                    111P    216
6.43047872723389,8.53054063656056,12.68023764209,                    111P    217
6.43047872723389,12.7049971665847,12.68023764209,                    111P    218
8.93047872723389,8.53054063656056,12.68023764209,                    111P    219
8.93047872723389,12.7049971665847,12.68023764209,                    111P    220
8.93047872723389,8.53054063656055,10.18023764209,                    111P    221
8.93047872723389,12.7049971665847,10.18023764209,                    111P    222
8.93047872723389,8.53054063656055,7.68023764209001,                  111P    223
8.93047872723389,12.7049971665847,7.68023764209,                     111P    224
6.43047872723389,8.53054063656055,7.68023764209001,                  111P    225
6.43047872723389,12.7049971665847,7.68023764209,                     111P    226
3.93047872723389,8.53054063656055,7.68023764209001,                  111P    227
3.93047872723389,12.7049971665847,7.68023764209,                     111P    228
3.93047872723389,8.53054063656056,10.18023764209,                    111P    229
3.93047872723389,12.7049971665847,10.18023764209,                    111P    230
-0.0697826120096441,1.6,-3.14159265358979,3.14159265358979;          111P    231
128,1,1,1,1,0,0,1,0,0,-0.00100000000000022,-0.00100000000000022,     113P    232
0.701000004470348,0.701000004470348,-0.0353556427328816,             113P    233
-0.0353556427328816,0.401,0.401,1.,1.,1.,1.,9.93047877938795,        113P    234
8.35144073925585,13.6902376644417,9.93047877938795,                  113P    235
8.35144073925584,6.67023761973827,9.93047877938795,                  113P    236
12.7149971665847,13.6902376644417,9.93047877938795,                  113P    237
12.7149971665847,6.67023761973826,-0.00100000000000022,              113P    238
0.701000004470348,-0.0353556427328816,0.401;                         113P    239
128,1,1,1,1,0,0,1,0,0,-0.351000005215407,-0.351000005215407,         115P    240
0.351000005215407,0.351000005215407,-0.351000002235174,              115P    241
-0.351000002235174,0.351000002235174,0.351000002235174,1.,1.,1.,     115P    242
1.,2.92047867507983,12.7049971665847,13.6902376644417,               115P    243
9.94047877938795,12.7049971665847,13.6902376644417,                  115P    244
2.92047867507982,12.7049971665847,6.67023761973826,                  115P    245
9.94047877938795,12.7049971665847,6.67023761973826,                  115P    246
-0.351000005215407,0.351000005215407,-0.351000002235174,             115P    247
0.351000002235174;                                                   115P    248
128,1,2,1,2,0,0,0,0,0,-1.24176346441205D-9,-1.24176346441205D-9,     117P    249
0.388888890130651,0.388888890130651,0.535527965273185,               117P    250
0.535527965273185,0.535527965273185,0.679673818908241,               117P    251
0.679673818908241,0.679673818908241,1.,1.,0.997403870702854,         117P    252
0.997403870702854,1.,1.,2.93047867507982,8.36144073925586,           117P    253
13.6802376644418,2.93047867507982,8.36144073925585,                  117P    254
6.68023761973827,1.65571909576662,8.10874780164832,                  117P    255
13.6802376644418,1.65571909576662,8.10874780164831,                  117P    256
6.68023761973827,0.430478727233888,7.67555991506182,                 117P    257
13.6802376644418,0.430478727233886,7.67555991506181,                 117P    258
6.68023761973827,-1.24176346441205D-9,0.388888890130651,             117P    259
0.535527965273185,0.679673818908241;                                 117P    260
128,1,2,1,2,0,0,0,0,0,-1.24176346903798D-9,-1.24176346903798D-9,     119P    261
0.388888890130651,0.388888890130651,-6.1679056923619D-17,            119P    262
-6.1679056923619D-17,-6.1679056923619D-17,0.144145853635056,         119P    263
0.144145853635056,0.144145853635056,1.,1.,0.997403870702854,         119P    264
0.997403870702854,1.,1.,12.4304787272339,7.67555991506181,           119P    265
13.6802376644417,12.4304787272339,7.6755599150618,                   119P    266
6.68023761973827,11.2052383587012,8.10874780164831,                  119P    267
13.6802376644417,11.2052383587011,8.1087478016483,                   119P    268
6.68023761973827,9.93047877938795,8.36144073925585,                  119P    269
13.6802376644417,9.93047877938795,8.36144073925584,                  119P    270
6.68023761973826,-1.24176346903798D-9,0.388888890130651,             119P    271
-6.1679056923619D-17,0.144145853635056;                              119P    272
128,1,2,1,2,0,0,0,0,0,0.0555555555555552,0.0555555555555552,         121P    273
0.333333333333332,0.333333333333332,0.200497568696351,               121P    274
0.200497568696351,0.200497568696351,0.479176250211889,               121P    275
0.479176250211889,0.479176250211889,1.,1.,0.990307970554216,         121P    276
0.990307970554216,1.,1.,8.93047872723389,8.53054063656056,           121P    277
12.68023764209,8.93047872723389,8.53054063656055,                    121P    278
7.68023764209001,6.43047872723389,8.88116108246881,                  121P    279
12.68023764209,6.43047872723389,8.8811610824688,7.68023764209,       121P    280
3.93047872723389,8.53054063656056,12.68023764209,                    121P    281
3.93047872723388,8.53054063656055,7.68023764209001,                  121P    282
0.0555555555555552,0.333333333333332,0.200497568696351,              121P    283
0.479176250211889;                                                   121P    284
128,1,1,1,1,0,0,1,0,0,-0.0010000000000001,-0.0010000000000001,       123P    285
0.301,0.301,-0.001,-0.001,0.701,0.701,1.,1.,1.,1.,                   123P    286
11.4271453939005,4.83770469989979,6.67023764209001,                  123P    287
12.4338120605672,7.68498800547762,6.67023764209001,                  123P    288
11.4271453939006,4.8377046998998,13.69023764209,                     123P    289
12.4338120605672,7.68498800547763,13.69023764209,                    123P    290
-0.0010000000000001,0.301,-0.001,0.701;                              123P    291
128,1,2,1,2,0,0,0,0,0,-7.38359745219196D-17,                         125P    292
-7.38359745219196D-17,0.466666666666665,0.466666666666665,           125P    293
-1.45010889529111D-16,-1.45010889529111D-16,                         125P    294
-1.45010889529111D-16,0.679673818908241,0.679673818908241,           125P    295
0.679673818908241,1.,1.,0.942809041582064,0.942809041582064,1.,      125P    296
1.,11.4304787272339,4.84713279031561,6.68023764209001,               125P    297
11.4304787272339,4.84713279031562,13.68023764209,                    125P    298
6.43047872723388,6.61489974328197,6.68023764209001,                  125P    299
6.43047872723388,6.61489974328199,13.68023764209,                    125P    300
1.43047872723388,4.84713279031562,6.68023764209001,                  125P    301
1.43047872723388,4.84713279031563,13.68023764209,                    125P    302
-7.38359745219196D-17,0.466666666666665,-1.45010889529111D-16,       125P    303
0.679673818908241;                                                   125P    304
128,1,1,1,1,0,0,1,0,0,-0.00100000000000009,-0.00100000000000009,     127P    305
0.301,0.301,-0.00100000000000003,-0.00100000000000003,0.701,         127P    306
0.701,1.,1.,1.,1.,0.427145393900553,7.68498800547763,                127P    307
6.67023764209001,1.43381206056722,4.83770469989979,                  127P    308
6.67023764209001,0.427145393900555,7.68498800547764,                 127P    309
13.69023764209,1.43381206056722,4.83770469989981,13.69023764209,     127P    310
-0.00100000000000009,0.301,-0.00100000000000003,0.701;               127P    311
128,1,1,1,1,0,0,1,0,0,-0.601,-0.601,0.601,0.601,                     129P    312
-0.193893218813453,-0.193893218813453,0.593893218813453,             129P    313
0.593893218813453,1.,1.,1.,1.,0.420478727233887,                     129P    314
4.83713279031562,13.68023764209,12.4404787272339,                    129P    315
4.83713279031562,13.68023764209,0.420478727233892,                   129P    316
12.7149971665847,13.68023764209,12.4404787272339,                    129P    317
12.7149971665847,13.68023764209,-0.601,0.601,-0.193893218813453,     129P    318
0.593893218813453;                                                   129P    319
128,1,1,1,1,0,0,1,0,0,-0.601,-0.601,0.601,0.601,                     131P    320
-0.193893218813452,-0.193893218813452,0.593893218813452,             131P    321
0.593893218813452,1.,1.,1.,1.,12.4404787272339,4.83713279031561,     131P    322
6.68023764209001,0.420478727233885,4.83713279031562,                 131P    323
6.68023764209002,12.4404787272339,12.7149971665847,                  131P    324
6.68023764209,0.42047872723389,12.7149971665847,6.68023764209,       131P    325
-0.601,0.601,-0.193893218813452,0.593893218813452;                   131P    326
502,18,2.93047867507982,8.36144073925586,13.6802376644418,           133P    327
2.93047867507982,8.36144073925584,6.68023761973827,                  133P    328
2.93047867507982,12.7049971665847,13.6802376644417,                  133P    329
2.93047867507982,12.7049971665847,6.68023761973826,                  133P    330
3.93047872723389,12.7049971665847,10.18023764209,                    133P    331
3.93047872723389,8.53054063656055,10.18023764209,                    133P    332
9.93047877938795,8.36144073925584,6.68023761973827,                  133P    333
9.93047877938795,8.36144073925585,13.6802376644417,                  133P    334
9.93047877938795,12.7049971665847,6.68023761973826,                  133P    335
9.93047877938795,12.7049971665847,13.6802376644417,                  133P    336
0.430478727233887,7.67555991506181,6.68023764209001,                 133P    337
0.430478727233889,7.67555991506182,13.68023764209,                   133P    338
12.4304787272339,7.67555991506181,13.68023764209,                    133P    339
12.4304787272339,7.6755599150618,6.68023764209001,                   133P    340
11.4304787272339,4.84713279031561,6.68023764209001,                  133P    341
11.4304787272339,4.84713279031562,13.68023764209,                    133P    342
1.43047872723388,4.84713279031561,6.68023764209002,                  133P    343
1.43047872723388,4.84713279031563,13.68023764209;                    133P    344
504,27,55,133,1,133,2,57,133,1,133,3,59,133,4,133,3,61,133,2,        135P    345
133,4,63,133,5,133,5,65,133,5,133,6,67,133,6,133,6,69,133,7,133,     135P    346
8,71,133,7,133,9,73,133,10,133,9,75,133,10,133,8,77,133,9,133,4,     135P    347
79,133,3,133,10,81,133,2,133,11,83,133,11,133,12,85,133,1,133,       135P    348
12,87,133,13,133,8,89,133,14,133,13,91,133,14,133,7,93,133,14,       135P    349
133,15,95,133,16,133,13,97,133,15,133,16,99,133,15,133,17,101,       135P    350
133,18,133,16,103,133,17,133,18,105,133,11,133,17,107,133,12,        135P    351
133,18;                                                              135P    352
406,1,5HBody1;                                                       137P    353
314,26.6666666666667,58.8235294117647,28.2352941176471,23HPlasti     139P    354
c - Matte (Green);                                                   139P    355
314,62.7450980392157,62.7450980392157,62.7450980392157,13HSteel      141P    356
- Satin;                                                             141P    357
S      1G      3D    142P    357                                        T      1
