                                                                        S      1
,,16HPump Cover Slide,16HPump Cover Slide,7Hunknown,7Hunknown,32,38,7,  G      1
99,15,,1.,2,2HMM,1,0.08,15H20190120.162000,0.01,10000.,7Hunknown,7HunknoG      2
wn,11,0,;                                                               G      3
     186       1                                                00000000D      1
     186            -191       1       0                               0D      2
     514       2                                                00010000D      3
     514                       2       1                               0D      4
     510       4                                                00010000D      5
     510            -191       1       1                               0D      6
     510       5                                                00010000D      7
     510            -191       1       1                               0D      8
     510       6                                                00010000D      9
     510            -191       1       1                               0D     10
     510       7                                                00010000D     11
     510            -191       1       1                               0D     12
     510       8                                                00010000D     13
     510            -191       1       1                               0D     14
     510       9                                                00010000D     15
     510            -191       1       1                               0D     16
     510      10                                                00010000D     17
     510            -191       1       1                               0D     18
     510      11                                                00010000D     19
     510            -191       1       1                               0D     20
     510      12                                                00010000D     21
     510            -191       1       1                               0D     22
     510      13                                                00010000D     23
     510            -191       1       1                               0D     24
     510      14                                                00010000D     25
     510            -191       1       1                               0D     26
     510      15                                                00010000D     27
     510            -191       1       1                               0D     28
     510      16                                                00010000D     29
     510            -191       1       1                               0D     30
     510      17                                                00010000D     31
     510            -191       1       1                               0D     32
     510      18                                                00010000D     33
     510            -191       1       1                               0D     34
     510      19                                                00010000D     35
     510            -191       1       1                               0D     36
     508      20                                                00010000D     37
     508                       1       1                               0D     38
     508      21                                                00010000D     39
     508                       3       1                               0D     40
     508      24                                                00010000D     41
     508                       1       1                               0D     42
     508      25                                                00010000D     43
     508                       1       1                               0D     44
     508      26                                                00010000D     45
     508                       1       1                               0D     46
     508      27                                                00010000D     47
     508                       2       1                               0D     48
     508      29                                                00010000D     49
     508                       2       1                               0D     50
     508      31                                                00010000D     51
     508                       1       1                               0D     52
     508      32                                                00010000D     53
     508                       2       1                               0D     54
     508      34                                                00010000D     55
     508                       1       1                               0D     56
     508      35                                                00010000D     57
     508                       2       1                               0D     58
     508      37                                                00010000D     59
     508                       1       1                               0D     60
     508      38                                                00010000D     61
     508                       1       1                               0D     62
     508      39                                                00010000D     63
     508                       1       1                               0D     64
     508      40                                                00010000D     65
     508                       1       1                               0D     66
     508      41                                                00010000D     67
     508                       1       1                               0D     68
     126      42                                                00010000D     69
     126       0               6       0                               0D     70
     126      48                                                00010000D     71
     126       0               4       0                               0D     72
     126      52                                                00010000D     73
     126       0               6       0                               0D     74
     126      58                                                00010000D     75
     126       0               4       0                               0D     76
     126      62                                                00010000D     77
     126       0               4       0                               0D     78
     126      66                                                00010000D     79
     126       0               5       0                               0D     80
     126      71                                                00010000D     81
     126       0               9       0                               0D     82
     126      80                                                00010000D     83
     126       0               4       0                               0D     84
     126      84                                                00010000D     85
     126       0               6       0                               0D     86
     126      90                                                00010000D     87
     126       0               3       0                               0D     88
     126      93                                                00010000D     89
     126       0               6       0                               0D     90
     126      99                                                00010000D     91
     126       0               3       0                               0D     92
     126     102                                                00010000D     93
     126       0               3       0                               0D     94
     126     105                                                00010000D     95
     126       0               6       0                               0D     96
     126     111                                                00010000D     97
     126       0               4       0                               0D     98
     126     115                                                00010000D     99
     126       0               4       0                               0D    100
     126     119                                                00010000D    101
     126       0               3       0                               0D    102
     126     122                                                00010000D    103
     126       0               3       0                               0D    104
     126     125                                                00010000D    105
     126       0               4       0                               0D    106
     126     129                                                00010000D    107
     126       0               6       0                               0D    108
     126     135                                                00010000D    109
     126       0               4       0                               0D    110
     126     139                                                00010000D    111
     126       0               3       0                               0D    112
     126     142                                                00010000D    113
     126       0               4       0                               0D    114
     126     146                                                00010000D    115
     126       0               3       0                               0D    116
     126     149                                                00010000D    117
     126       0               4       0                               0D    118
     126     153                                                00010000D    119
     126       0               3       0                               0D    120
     126     156                                                00010000D    121
     126       0               4       0                               0D    122
     126     160                                                00010000D    123
     126       0               6       0                               0D    124
     126     166                                                00010000D    125
     126       0               4       0                               0D    126
     126     170                                                00010000D    127
     126       0               9       0                               0D    128
     126     179                                                00010000D    129
     126       0               5       0                               0D    130
     126     184                                                00010000D    131
     126       0               6       0                               0D    132
     126     190                                                00010000D    133
     126       0               3       0                               0D    134
     126     193                                                00010000D    135
     126       0               6       0                               0D    136
     126     199                                                00010000D    137
     126       0               4       0                               0D    138
     126     203                                                00010000D    139
     126       0               5       0                               0D    140
     126     208                                                00010000D    141
     126       0               6       0                               0D    142
     126     214                                                00010000D    143
     126       0               3       0                               0D    144
     126     217                                                00010000D    145
     126       0               3       0                               0D    146
     126     220                                                00010000D    147
     126       0               4       0                               0D    148
     126     224                                                00010000D    149
     126       0               4       0                               0D    150
     126     228                                                00010000D    151
     126       0               3       0                               0D    152
     128     231                                                00010000D    153
     128       0    -191      10       0                               0D    154
     128     241                                                00010000D    155
     128       0    -191       7       0                               0D    156
     128     248                                                00010000D    157
     128       0    -191       7       0                               0D    158
     128     255                                                00010000D    159
     128       0    -191       6       0                               0D    160
     128     261                                                00010000D    161
     128       0    -191      10       0                               0D    162
     128     271                                                00010000D    163
     128       0    -191       6       0                               0D    164
     128     277                                                00010000D    165
     128       0    -191       7       0                               0D    166
     128     284                                                00010000D    167
     128       0    -191       9       0                               0D    168
     128     293                                                00010000D    169
     128       0    -191       8       0                               0D    170
     128     301                                                00010000D    171
     128       0    -191      10       0                               0D    172
     128     311                                                00010000D    173
     128       0    -191       8       0                               0D    174
     128     319                                                00010000D    175
     128       0    -191      10       0                               0D    176
     128     329                                                00010000D    177
     128       0    -191       6       0                               0D    178
     128     335                                                00010000D    179
     128       0    -191      14       0                               0D    180
     128     349                                                00010000D    181
     128       0    -191       6       0                               0D    182
     128     355                                                00010000D    183
     128       0    -191       6       0                               0D    184
     502     361                                                00010000D    185
     502                      21       1                               0D    186
     504     382                                                00010001D    187
     504                      12       1                               0D    188
     406     394                                                00000000D    189
     406                       1      15                               0D    190
     314     395                                                00000200D    191
     314                       2       0                               0D    192
     314     397                                                00000200D    193
     314                       2       0                               0D    194
186,3,1,0,0,1,189;                                                     1P      1
514,16,5,1,7,1,9,1,11,1,13,1,15,1,17,1,19,1,21,1,23,1,25,1,27,1,       3P      2
29,1,31,1,33,1,35,1;                                                   3P      3
510,153,1,1,37;                                                        5P      4
510,155,1,1,39;                                                        7P      5
510,157,1,1,41;                                                        9P      6
510,159,1,1,43;                                                       11P      7
510,161,1,1,45;                                                       13P      8
510,163,1,1,47;                                                       15P      9
510,165,1,1,49;                                                       17P     10
510,167,1,1,51;                                                       19P     11
510,169,1,1,53;                                                       21P     12
510,171,1,1,55;                                                       23P     13
510,173,1,1,57;                                                       25P     14
510,175,1,1,59;                                                       27P     15
510,177,1,1,61;                                                       29P     16
510,179,1,1,63;                                                       31P     17
510,181,1,1,65;                                                       33P     18
510,183,1,1,67;                                                       35P     19
508,4,0,187,1,1,0,0,187,2,1,0,0,187,3,1,0,0,187,4,1,0;                37P     20
508,12,0,187,3,0,0,0,187,5,1,0,0,187,6,1,0,0,187,7,0,0,0,187,8,       39P     21
1,0,0,187,9,0,0,0,187,10,1,0,0,187,11,0,0,0,187,12,1,0,0,187,13,      39P     22
1,0,0,187,14,0,0,0,187,15,1,0;                                        39P     23
508,4,0,187,2,0,0,0,187,16,0,0,0,187,17,0,0,0,187,5,0,0;              41P     24
508,4,0,187,4,0,0,0,187,15,0,0,0,187,18,0,0,0,187,19,0,0;             43P     25
508,4,0,187,20,1,0,0,187,21,1,0,0,187,11,1,0,0,187,22,1,0;            45P     26
508,6,0,187,21,0,0,0,187,23,0,0,0,187,24,0,0,0,187,25,0,0,0,187,      47P     27
26,0,0,0,187,12,0,0;                                                  47P     28
508,8,0,187,20,0,0,0,187,27,1,0,0,187,28,0,0,0,187,29,1,0,0,187,      49P     29
30,0,0,0,187,31,1,0,0,187,32,0,0,0,187,23,1,0;                        49P     30
508,4,0,187,32,1,0,0,187,33,1,0,0,187,34,1,0,0,187,24,1,0;            51P     31
508,6,0,187,33,0,0,0,187,31,0,0,0,187,35,0,0,0,187,6,0,0,0,187,       53P     32
17,1,0,0,187,36,0,0;                                                  53P     33
508,4,0,187,37,1,0,0,187,18,1,0,0,187,14,1,0,0,187,38,1,0;            55P     34
508,8,0,187,1,0,0,0,187,19,1,0,0,187,37,0,0,0,187,39,1,0,0,187,       57P     35
25,1,0,0,187,34,0,0,0,187,36,1,0,0,187,16,1,0;                        57P     36
508,4,0,187,28,1,0,0,187,40,1,0,0,187,9,1,0,0,187,41,1,0;             59P     37
508,4,0,187,41,0,0,0,187,8,0,0,0,187,42,0,0,0,187,29,0,0;             61P     38
508,4,0,187,30,1,0,0,187,42,1,0,0,187,7,1,0,0,187,35,1,0;             63P     39
508,4,0,187,22,0,0,0,187,10,0,0,0,187,40,0,0,0,187,27,0,0;            65P     40
508,4,0,187,38,0,0,0,187,13,0,0,0,187,26,1,0,0,187,39,0,0;            67P     41
126,2,2,0,0,0,0,-0.785398163397453,-0.785398163397453,                69P     42
-0.785398163397453,0.785398163397446,0.785398163397446,               69P     43
0.785398163397446,1.,0.707106781186537,1.,-5.80126745136392,          69P     44
34.2,18.1499999999997,-5.80126745136392,34.2,19.1499999999997,        69P     45
-5.80126745136392,35.2,19.1499999999997,-0.785398163397453,           69P     46
0.785398163397446,0.,0.,0.;                                           69P     47
126,1,1,0,0,1,0,-0.165,-0.165,-2.22044604925031D-16,                  71P     48
-2.22044604925031D-16,1.,1.,-5.80126745136392,35.2,                   71P     49
19.1499999999997,-7.45126745136392,35.2,19.1499999999997,-0.165,      71P     50
-2.22044604925031D-16,0.,0.,0.;                                       71P     51
126,2,2,0,0,0,0,-0.785398163397446,-0.785398163397446,                73P     52
-0.785398163397446,0.785398163397453,0.785398163397453,               73P     53
0.785398163397453,1.,0.707106781186537,1.,-7.45126745136392,          73P     54
35.2,19.1499999999997,-7.45126745136392,34.2,19.1499999999997,        73P     55
-7.45126745136392,34.2,18.1499999999997,-0.785398163397446,           73P     56
0.785398163397453,0.,0.,0.;                                           73P     57
126,1,1,0,0,1,0,1.11022302462516D-16,1.11022302462516D-16,0.165,      75P     58
0.165,1.,1.,-7.45126745136392,34.2,18.1499999999997,                  75P     59
-5.80126745136392,34.2,18.1499999999997,1.11022302462516D-16,         75P     60
0.165,0.,0.,0.;                                                       75P     61
126,1,1,0,0,1,0,-1.72928400488266,-1.72928400488266,                  77P     62
0.462020654760597,0.462020654760597,1.,1.,-7.45126745136392,          77P     63
35.2,19.1499999999997,-7.45126745136392,57.1130465964326,             77P     64
19.1499999999996,-1.72928400488266,0.462020654760597,0.,0.,0.;        77P     65
126,1,1,0,0,1,0,-0.0369904076738606,-0.0369904076738606,              79P     66
0.263007879283533,0.263007879283533,1.,1.,-7.45126745136392,          79P     67
57.1130465964326,19.1499999999996,-7.45126745136392,                  79P     68
59.3241491085899,21.1775410966161,-0.0369904076738606,                79P     69
0.263007879283533,0.,0.,0.;                                           79P     70
126,4,2,0,0,0,0,-1.15645744624934,-1.15645744624934,                  81P     71
-1.15645744624934,-1.11022302462516D-15,-1.11022302462516D-15,        81P     72
1.15645744624934,1.15645744624934,1.15645744624934,1.,                81P     73
0.837432039366278,1.,0.837432039366297,1.,-7.45126745136392,61.,      81P     74
20.4405027173031,-7.45126745136392,61.,21.0931425080382,              81P     75
-7.45126745136392,60.4025848411142,21.3558853944961,                  81P     76
-7.45126745136392,59.8051696822285,21.6186282809541,                  81P     77
-7.45126745136392,59.3241491085899,21.1775410966161,                  81P     78
-1.15645744624934,1.15645744624934,0.,0.,0.;                          81P     79
126,1,1,0,0,1,0,0.605949728269689,0.605949728269689,                  83P     80
5.19999999999999,5.19999999999999,1.,1.,-7.45126745136392,61.,        83P     81
20.4405027173031,-7.45126745136392,61.,-25.4999999999999,             83P     82
0.605949728269689,5.19999999999999,0.,0.,0.;                          83P     83
126,2,2,0,0,0,0,-0.785398163397444,-0.785398163397444,                85P     84
-0.785398163397444,0.785398163397453,0.785398163397453,               85P     85
0.785398163397453,1.,0.707106781186545,1.,-7.45126745136392,60.,      85P     86
-26.4999999999999,-7.45126745136392,61.,-26.4999999999999,            85P     87
-7.45126745136392,61.,-25.4999999999999,-0.785398163397444,           85P     88
0.785398163397453,0.,0.,0.;                                           85P     89
126,1,1,0,0,1,0,0.0999999999999996,0.0999999999999996,2.35,2.35,      87P     90
1.,1.,-7.45126745136392,60.,-26.4999999999999,-7.45126745136392,      87P     91
37.5,-26.4999999999999,0.0999999999999996,2.35,0.,0.,0.;              87P     92
126,2,2,0,0,0,0,-0.785398163397448,-0.785398163397448,                89P     93
-0.785398163397448,0.785398163397448,0.785398163397448,               89P     94
0.785398163397448,1.,0.707106781186536,1.,-7.45126745136392,          89P     95
36.5,-25.4999999999999,-7.45126745136392,36.5,-26.4999999999999,      89P     96
-7.45126745136392,37.5,-26.4999999999999,-0.785398163397448,          89P     97
0.785398163397448,0.,0.,0.;                                           89P     98
126,1,1,0,0,1,0,0.100000000000001,0.100000000000001,0.7,0.7,1.,       91P     99
1.,-7.45126745136392,36.5,-25.4999999999999,-7.45126745136392,        91P    100
36.5,-19.4999999999999,0.100000000000001,0.7,0.,0.,0.;                91P    101
126,1,1,0,0,1,0,0.,0.,0.130000000000001,0.130000000000001,1.,1.,      93P    102
-7.45126745136392,36.5,-19.4999999999999,-7.45126745136392,35.2,      93P    103
-19.4999999999999,0.,0.130000000000001,0.,0.,0.;                      93P    104
126,2,2,0,0,0,0,-0.785398163397442,-0.785398163397442,                95P    105
-0.785398163397442,0.785398163397446,0.785398163397446,               95P    106
0.785398163397446,1.,0.707106781186545,1.,-7.45126745136392,          95P    107
34.2,-18.4999999999999,-7.45126745136392,34.2,-19.4999999999999,      95P    108
-7.45126745136392,35.2,-19.4999999999999,-0.785398163397442,          95P    109
0.785398163397446,0.,0.,0.;                                           95P    110
126,1,1,0,0,1,0,0.800000000000001,0.800000000000001,                  97P    111
4.46499999999996,4.46499999999996,1.,1.,-7.45126745136392,34.2,       97P    112
-18.4999999999999,-7.45126745136392,34.2,18.1499999999997,            97P    113
0.800000000000001,4.46499999999996,0.,0.,0.;                          97P    114
126,1,1,0,0,1,0,-0.462020654760596,-0.462020654760596,                99P    115
1.72928400488266,1.72928400488266,1.,1.,-5.80126745136392,            99P    116
57.1130465964326,19.1499999999996,-5.80126745136392,35.2,             99P    117
19.1499999999997,-0.462020654760596,1.72928400488266,0.,0.,0.;        99P    118
126,1,1,0,0,1,0,0.,0.,0.165,0.165,1.,1.,-7.45126745136392,           101P    119
57.1130465964326,19.1499999999996,-5.80126745136392,                 101P    120
57.1130465964326,19.1499999999996,0.,0.165,0.,0.,0.;                 101P    121
126,1,1,0,0,1,0,-0.165,-0.165,0.,0.,1.,1.,-5.80126745136392,         103P    122
34.2,-18.4999999999999,-7.45126745136392,34.2,-18.4999999999999,     103P    123
-0.165,0.,0.,0.,0.;                                                  103P    124
126,1,1,0,0,1,0,-4.46499999999996,-4.46499999999996,                 105P    125
-0.800000000000001,-0.800000000000001,1.,1.,-5.80126745136392,       105P    126
34.2,18.1499999999997,-5.80126745136392,34.2,-18.4999999999999,      105P    127
-4.46499999999996,-0.800000000000001,0.,0.,0.;                       105P    128
126,2,2,0,0,0,0,-0.785398163397448,-0.785398163397448,               107P    129
-0.785398163397448,0.785398163397448,0.785398163397448,              107P    130
0.785398163397448,1.,0.707106781186536,1.,-2.45126745136392,         107P    131
37.5,-26.4999999999999,-2.45126745136392,36.5,-26.4999999999999,     107P    132
-2.45126745136392,36.5,-25.4999999999999,-0.785398163397448,         107P    133
0.785398163397448,0.,0.,0.;                                          107P    134
126,1,1,0,0,1,0,-0.5,-0.5,-1.11022302462516D-16,                     109P    135
-1.11022302462516D-16,1.,1.,-2.45126745136392,36.5,                  109P    136
-25.4999999999999,-7.45126745136392,36.5,-25.4999999999999,-0.5,     109P    137
-1.11022302462516D-16,0.,0.,0.;                                      109P    138
126,1,1,0,0,1,0,0.,0.,0.5,0.5,1.,1.,-7.45126745136392,37.5,          111P    139
-26.4999999999999,-2.45126745136392,37.5,-26.4999999999999,0.,       111P    140
0.5,0.,0.,0.;                                                        111P    141
126,1,1,0,0,1,0,0.0439799497133561,0.0439799497133561,               113P    142
2.57482083051592,2.57482083051592,1.,1.,-2.45126745136392,36.5,      113P    143
-0.191591191974326,-2.45126745136392,36.5,-25.4999999999999,         113P    144
0.0439799497133561,2.57482083051592,0.,0.,0.;                        113P    145
126,1,1,0,0,1,0,0.165,0.165,0.5,0.5,1.,1.,-5.80126745136392,         115P    146
36.5,-0.191591191974326,-2.45126745136392,36.5,                      115P    147
-0.191591191974326,0.165,0.5,0.,0.,0.;                               115P    148
126,1,1,0,0,1,0,-0.81491041525797,-0.81491041525797,                 117P    149
1.11593046554459,1.11593046554459,1.,1.,-5.80126745136392,36.5,      117P    150
-19.4999999999999,-5.80126745136392,36.5,-0.191591191974325,         117P    151
-0.81491041525797,1.11593046554459,0.,0.,0.;                         117P    152
126,1,1,0,0,1,0,0.,0.,0.165,0.165,1.,1.,-7.45126745136392,36.5,      119P    153
-19.4999999999999,-5.80126745136392,36.5,-19.4999999999999,0.,       119P    154
0.165,0.,0.,0.;                                                      119P    155
126,1,1,0,0,1,0,0.0999999999999974,0.0999999999999974,2.35,2.35,     121P    156
1.,1.,-2.45126745136392,37.5,-26.4999999999999,                      121P    157
-2.45126745136392,60.,-26.4999999999999,0.0999999999999974,2.35,     121P    158
0.,0.,0.;                                                            121P    159
126,2,2,0,0,0,0,-0.785398163397453,-0.785398163397453,               123P    160
-0.785398163397453,0.785398163397444,0.785398163397444,              123P    161
0.785398163397444,1.,0.707106781186545,1.,-2.45126745136392,61.,     123P    162
-25.4999999999999,-2.45126745136392,61.,-26.4999999999999,           123P    163
-2.45126745136392,60.,-26.4999999999999,-0.785398163397453,          123P    164
0.785398163397444,0.,0.,0.;                                          123P    165
126,1,1,0,0,1,0,-4.82142661174835,-4.82142661174835,                 125P    166
-0.227376340018042,-0.227376340018042,1.,1.,-2.45126745136392,       125P    167
61.,-25.4999999999999,-2.45126745136392,61.,20.4405027173031,        125P    168
-4.82142661174835,-0.227376340018042,0.,0.,0.;                       125P    169
126,4,2,0,0,0,0,-1.15645744624934,-1.15645744624934,                 127P    170
-1.15645744624934,-4.44089209850063D-16,-4.44089209850063D-16,       127P    171
1.15645744624934,1.15645744624934,1.15645744624934,1.,               127P    172
0.837432039366291,1.,0.837432039366278,1.,-2.45126745136392,         127P    173
59.3241491085899,21.1775410966161,-2.45126745136392,                 127P    174
59.8051696822285,21.6186282809541,-2.45126745136392,                 127P    175
60.4025848411142,21.3558853944961,-2.45126745136392,61.,             127P    176
21.0931425080382,-2.45126745136392,61.,20.4405027173031,             127P    177
-1.15645744624934,1.15645744624934,0.,0.,0.;                         127P    178
126,1,1,0,0,1,0,-0.263007879283532,-0.263007879283532,               129P    179
2.78975038019468,2.78975038019468,1.,1.,-2.45126745136392,           129P    180
59.3241491085899,21.1775410966161,-2.45126745136392,                 129P    181
36.8241491085899,0.545447187338619,-0.263007879283532,               129P    182
2.78975038019468,0.,0.,0.;                                           129P    183
126,2,2,0,0,0,0,-0.414338880545558,-0.414338880545558,               131P    184
-0.414338880545558,0.414338880545563,0.414338880545563,              131P    185
0.414338880545563,1.,0.915382677192975,1.,-2.45126745136392,         131P    186
36.5,-0.191591191974326,-2.45126745136392,36.5,                      131P    187
0.248208305159213,-2.45126745136392,36.8241491085899,                131P    188
0.54544718733861,-0.414338880545558,0.414338880545563,0.,0.,0.;      131P    189
126,1,1,0,0,1,0,-0.5,-0.5,-0.165,-0.165,1.,1.,-2.45126745136392,     133P    190
36.8241491085899,0.545447187338607,-5.80126745136392,                133P    191
36.8241491085899,0.545447187338607,-0.5,-0.165,0.,0.,0.;             133P    192
126,2,2,0,0,0,0,-0.41433888054556,-0.41433888054556,                 135P    193
-0.41433888054556,0.414338880545557,0.414338880545557,               135P    194
0.414338880545557,1.,0.915382677192946,1.,-5.80126745136392,         135P    195
36.8241491085899,0.545447187338608,-5.80126745136392,36.5,           135P    196
0.248208305159213,-5.80126745136392,36.5,-0.191591191974325,         135P    197
-0.41433888054556,0.414338880545557,0.,0.,0.;                        135P    198
126,1,1,0,0,1,0,1.11022302462516D-16,1.11022302462516D-16,0.5,       137P    199
0.5,1.,1.,-7.45126745136392,59.3241491085899,21.1775410966161,       137P    200
-2.45126745136392,59.3241491085899,21.1775410966161,                 137P    201
1.11022302462516D-16,0.5,0.,0.,0.;                                   137P    202
126,1,1,0,0,1,0,-1.24320713730224,-1.24320713730224,                 139P    203
1.50955283521857,1.50955283521857,1.,1.,-5.80126745136392,           139P    204
36.8241491085899,0.545447187338622,-5.80126745136392,                139P    205
57.1130465964326,19.1499999999996,-1.24320713730224,                 139P    206
1.50955283521857,0.,0.,0.;                                           139P    207
126,2,2,0,0,0,0,-0.785398163397446,-0.785398163397446,               141P    208
-0.785398163397446,0.785398163397442,0.785398163397442,              141P    209
0.785398163397442,1.,0.707106781186545,1.,-5.80126745136392,         141P    210
35.2,-19.4999999999999,-5.80126745136392,34.2,-19.4999999999999,     141P    211
-5.80126745136392,34.2,-18.4999999999999,-0.785398163397446,         141P    212
0.785398163397442,0.,0.,0.;                                          141P    213
126,1,1,0,0,1,0,0.,0.,0.165,0.165,1.,1.,-7.45126745136392,35.2,      143P    214
-19.4999999999999,-5.80126745136392,35.2,-19.4999999999999,0.,       143P    215
0.165,0.,0.,0.;                                                      143P    216
126,1,1,0,0,1,0,-0.130000000000001,-0.130000000000001,0.,0.,1.,      145P    217
1.,-5.80126745136392,35.2,-19.4999999999999,-5.80126745136392,       145P    218
36.5,-19.4999999999999,-0.130000000000001,0.,0.,0.,0.;               145P    219
126,1,1,0,0,1,0,-0.5,-0.5,1.11022302462516D-16,                      147P    220
1.11022302462516D-16,1.,1.,-2.45126745136392,60.,                    147P    221
-26.4999999999999,-7.45126745136392,60.,-26.4999999999999,-0.5,      147P    222
1.11022302462516D-16,0.,0.,0.;                                       147P    223
126,1,1,0,0,1,0,-1.11022302462516D-16,-1.11022302462516D-16,0.5,     149P    224
0.5,1.,1.,-7.45126745136392,61.,-25.4999999999999,                   149P    225
-2.45126745136392,61.,-25.4999999999999,-1.11022302462516D-16,       149P    226
0.5,0.,0.,0.;                                                        149P    227
126,1,1,0,0,1,0,-0.5,-0.5,0.,0.,1.,1.,-2.45126745136392,61.,         151P    228
20.4405027173031,-7.45126745136392,61.,20.4405027173031,-0.5,0.,     151P    229
0.,0.,0.;                                                            151P    230
128,1,2,1,2,0,0,0,0,0,-1.11846170559844D-17,                         153P    231
-1.11846170559844D-17,1.65,1.65,-0.785398163397446,                  153P    232
-0.785398163397446,-0.785398163397446,0.785398163397453,             153P    233
0.785398163397453,0.785398163397453,1.,1.,0.707106781186547,         153P    234
0.707106781186547,1.,1.,-5.80126745136392,35.2,19.1499999999997,     153P    235
-7.45126745136392,35.2,19.1499999999997,-5.80126745136392,34.2,      153P    236
19.1499999999997,-7.45126745136392,34.2,19.1499999999997,            153P    237
-5.80126745136392,34.2,18.1499999999997,-7.45126745136392,34.2,      153P    238
18.1499999999997,-1.11846170559844D-17,1.65,-0.785398163397446,      153P    239
0.785398163397453;                                                   153P    240
128,1,1,1,1,0,0,1,0,0,-4.45786282809538,-4.45786282809538,           155P    241
0.356000000000022,0.356000000000022,-1.341,-1.341,1.341,1.341,       155P    242
1.,1.,1.,1.,-7.45126745136392,34.19,-26.5099999999999,               155P    243
-7.45126745136392,34.19,21.6286282809541,-7.45126745136392,          155P    244
61.01,-26.5099999999999,-7.45126745136392,61.01,                     155P    245
21.6286282809541,-4.45786282809538,0.356000000000022,-1.341,         155P    246
1.341;                                                               155P    247
128,1,1,1,1,0,0,1,0,0,0.0262633501220669,0.0262633501220669,         157P    248
2.21956800976533,2.21956800976533,-0.001,-0.001,0.166,0.166,1.,      157P    249
1.,1.,1.,-7.46126745136392,57.1230465964326,19.1499999999996,        157P    250
-7.46126745136392,35.19,19.1499999999997,-5.79126745136392,          157P    251
57.1230465964326,19.1499999999996,-5.79126745136392,35.19,           157P    252
19.1499999999997,0.0262633501220669,2.21956800976533,-0.001,         157P    253
0.166;                                                               157P    254
128,1,1,1,1,0,0,1,0,0,0.124000000000001,0.124000000000001,           159P    255
3.79099999999996,3.79099999999996,-0.001,-0.001,0.166,0.166,1.,      159P    256
1.,1.,1.,-7.46126745136392,34.2,18.1599999999997,                    159P    257
-7.46126745136392,34.2,-18.5099999999999,-5.79126745136392,34.2,     159P    258
18.1599999999997,-5.79126745136392,34.2,-18.5099999999999,           159P    259
0.124000000000001,3.79099999999996,-0.001,0.166;                     159P    260
128,1,2,1,2,0,0,0,0,0,-1.11846170559843D-17,                         161P    261
-1.11846170559843D-17,5.,5.,-0.785398163397448,                      161P    262
-0.785398163397448,-0.785398163397448,0.785398163397448,             161P    263
0.785398163397448,0.785398163397448,1.,1.,0.707106781186548,         161P    264
0.707106781186548,1.,1.,-2.45126745136392,36.5,                      161P    265
-25.4999999999999,-7.45126745136392,36.5,-25.4999999999999,          161P    266
-2.45126745136392,36.5,-26.4999999999999,-7.45126745136392,36.5,     161P    267
-26.4999999999999,-2.45126745136392,37.5,-26.4999999999999,          161P    268
-7.45126745136392,37.5,-26.4999999999999,-1.11846170559843D-17,      161P    269
5.,-0.785398163397448,0.785398163397448;                             161P    270
128,1,1,1,1,0,0,1,0,0,-1.93184088080256,-1.93184088080256,0.601,     163P    271
0.601,-0.001,-0.001,0.501,0.501,1.,1.,1.,1.,-7.46126745136392,       163P    272
36.5,-0.181591191974326,-7.46126745136392,36.5,                      163P    273
-25.5099999999999,-2.44126745136392,36.5,-0.181591191974326,         163P    274
-2.44126745136392,36.5,-25.5099999999999,-1.93184088080256,          163P    275
0.601,-0.001,0.501;                                                  163P    276
128,1,1,1,1,0,0,1,0,0,-2.35214952222122,-2.35214952222122,           165P    277
2.46171330587417,2.46171330587417,-1.226,-1.226,1.226,1.226,1.,      165P    278
1.,1.,1.,-2.45126745136392,36.49,21.6286282809541,                   165P    279
-2.45126745136392,36.49,-26.5099999999999,-2.45126745136392,         165P    280
61.01,21.6286282809541,-2.45126745136392,61.01,                      165P    281
-26.5099999999999,-2.35214952222122,2.46171330587417,-1.226,         165P    282
1.226;                                                               165P    283
128,1,2,1,2,0,0,0,0,0,1.65,1.65,5.,5.,-0.414338880545564,            167P    284
-0.414338880545564,-0.414338880545564,0.414338880545558,             167P    285
0.414338880545558,0.414338880545558,1.,1.,0.915382677193001,         167P    286
0.915382677193001,1.,1.,-2.45126745136392,36.8241491085899,          167P    287
0.545447187338611,-5.80126745136392,36.8241491085899,                167P    288
0.545447187338611,-2.45126745136392,36.5,0.248208305159212,          167P    289
-5.80126745136392,36.5,0.248208305159212,-2.45126745136392,36.5,     167P    290
-0.191591191974327,-5.80126745136392,36.5,-0.191591191974327,        167P    291
1.65,5.,-0.414338880545564,0.414338880545558;                        167P    292
128,1,1,1,1,0,0,1,0,0,0.226376340018042,0.226376340018042,           169P    293
3.28113459949625,3.28113459949625,-0.00100000000000004,              169P    294
-0.00100000000000004,0.501,0.501,1.,1.,1.,1.,-7.46126745136392,      169P    295
59.3315194923831,21.1842996055302,-7.46126745136392,                 169P    296
36.8167787247968,0.538688678424499,-2.44126745136392,                169P    297
59.3315194923831,21.1842996055302,-2.44126745136392,                 169P    298
36.8167787247968,0.538688678424499,0.226376340018042,                169P    299
3.28113459949625,-0.00100000000000004,0.501;                         169P    300
128,1,2,1,2,0,0,0,0,0,-1.12140764168114D-15,                         171P    301
-1.12140764168114D-15,1.65,1.65,-0.785398163397442,                  171P    302
-0.785398163397442,-0.785398163397442,0.785398163397446,             171P    303
0.785398163397446,0.785398163397446,1.,1.,0.707106781186551,         171P    304
0.707106781186551,1.,1.,-5.80126745136392,34.2,                      171P    305
-18.4999999999999,-7.45126745136392,34.2,-18.4999999999999,          171P    306
-5.80126745136392,34.2,-19.4999999999999,-7.45126745136392,34.2,     171P    307
-19.4999999999999,-5.80126745136392,35.2,-19.4999999999999,          171P    308
-7.45126745136392,35.2,-19.4999999999999,-1.12140764168114D-15,      171P    309
1.65,-0.785398163397442,0.785398163397446;                           171P    310
128,1,1,1,1,0,0,1,0,0,-4.21099999999994,-4.21099999999994,           173P    311
-0.343999999999978,-0.343999999999978,-1.341,-1.341,                 173P    312
0.95230465964326,0.95230465964326,1.,1.,1.,1.,-5.80126745136392,     173P    313
34.19,19.1599999999997,-5.80126745136392,34.19,                      173P    314
-19.5099999999999,-5.80126745136392,57.1230465964326,                173P    315
19.1599999999997,-5.80126745136392,57.1230465964326,                 173P    316
-19.5099999999999,-4.21099999999994,-0.343999999999978,-1.341,       173P    317
0.95230465964326;                                                    173P    318
128,1,2,1,2,0,0,0,0,0,-1.11022302462516D-15,                         175P    319
-1.11022302462516D-15,5.,5.,-0.785398163397444,                      175P    320
-0.785398163397444,-0.785398163397444,0.785398163397453,             175P    321
0.785398163397453,0.785398163397453,1.,1.,0.707106781186547,         175P    322
0.707106781186547,1.,1.,-2.45126745136392,60.,-26.4999999999999,     175P    323
-7.45126745136392,60.,-26.4999999999999,-2.45126745136392,61.,       175P    324
-26.4999999999999,-7.45126745136392,61.,-26.4999999999999,           175P    325
-2.45126745136392,61.,-25.4999999999999,-7.45126745136392,61.,       175P    326
-25.4999999999999,-1.11022302462516D-15,5.,-0.785398163397444,       175P    327
0.785398163397453;                                                   175P    328
128,1,1,1,1,0,0,1,0,0,0.0990000000000005,0.0990000000000005,         177P    329
4.69505027173031,4.69505027173031,-0.001,-0.001,0.501,0.501,1.,      177P    330
1.,1.,1.,-7.46126745136392,61.,-25.5099999999999,                    177P    331
-7.46126745136392,61.,20.4505027173031,-2.44126745136392,61.,        177P    332
-25.5099999999999,-2.44126745136392,61.,20.4505027173031,            177P    333
0.0990000000000005,4.69505027173031,-0.001,0.501;                    177P    334
128,1,4,1,2,0,0,0,0,0,0.,0.,5.,5.,-1.15645744624934,                 179P    335
-1.15645744624934,-1.15645744624934,0.,0.,1.15645744624934,          179P    336
1.15645744624934,1.15645744624934,1.,1.,0.837432039366251,           179P    337
0.837432039366251,1.,1.,0.837432039366251,0.837432039366251,1.,      179P    338
1.,-2.45126745136392,61.,20.4405027173031,-7.45126745136392,61.,     179P    339
20.4405027173031,-2.45126745136392,61.,21.0931425080382,             179P    340
-7.45126745136392,61.,21.0931425080382,-2.45126745136392,            179P    341
60.4025848411142,21.3558853944961,-7.45126745136392,                 179P    342
60.4025848411142,21.3558853944961,-2.45126745136392,                 179P    343
59.8051696822285,21.6186282809541,-7.45126745136392,                 179P    344
59.8051696822285,21.6186282809541,-2.45126745136392,                 179P    345
59.3241491085899,21.1775410966161,-7.45126745136392,                 179P    346
59.3241491085899,21.1775410966161,0.,5.,-1.15645744624934,           179P    347
1.15645744624934;                                                    179P    348
128,1,1,1,1,0,0,1,0,0,0.0989999999999996,0.0989999999999996,         181P    349
2.351,2.351,-0.001,-0.001,0.501,0.501,1.,1.,1.,1.,                   181P    350
-7.46126745136392,37.49,-26.4999999999999,-7.46126745136392,         181P    351
60.01,-26.4999999999999,-2.44126745136392,37.49,                     181P    352
-26.4999999999999,-2.44126745136392,60.01,-26.4999999999999,         181P    353
0.0989999999999996,2.351,-0.001,0.501;                               181P    354
128,1,1,1,1,0,0,1,0,0,0.0989999999999992,0.0989999999999992,         183P    355
0.231,0.231,-0.001,-0.001,0.166,0.166,1.,1.,1.,1.,                   183P    356
-7.46126745136392,35.19,-19.4999999999999,-7.46126745136392,         183P    357
36.51,-19.4999999999999,-5.79126745136392,35.19,                     183P    358
-19.4999999999999,-5.79126745136392,36.51,-19.4999999999999,         183P    359
0.0989999999999992,0.231,-0.001,0.166;                               183P    360
502,28,-5.80126745136392,34.2,18.1499999999997,                      185P    361
-5.80126745136392,35.2,19.1499999999997,-7.45126745136392,35.2,      185P    362
19.1499999999997,-7.45126745136392,34.2,18.1499999999997,            185P    363
-7.45126745136392,57.1130465964326,19.1499999999996,                 185P    364
-7.45126745136392,59.3241491085899,21.1775410966161,                 185P    365
-7.45126745136392,61.,20.4405027173031,-7.45126745136392,61.,        185P    366
-25.4999999999999,-7.45126745136392,60.,-26.4999999999999,           185P    367
-7.45126745136392,37.5,-26.4999999999999,-7.45126745136392,36.5,     185P    368
-25.4999999999999,-7.45126745136392,36.5,-19.4999999999999,          185P    369
-7.45126745136392,35.2,-19.4999999999999,-7.45126745136392,34.2,     185P    370
-18.4999999999999,-5.80126745136392,57.1130465964326,                185P    371
19.1499999999996,-5.80126745136392,34.2,-18.4999999999999,           185P    372
-2.45126745136392,37.5,-26.4999999999999,-2.45126745136392,36.5,     185P    373
-25.4999999999999,-2.45126745136392,36.5,-0.191591191974326,         185P    374
-5.80126745136392,36.5,-0.191591191974325,-5.80126745136392,         185P    375
36.5,-19.4999999999999,-2.45126745136392,60.,-26.4999999999999,      185P    376
-2.45126745136392,61.,-25.4999999999999,-2.45126745136392,61.,       185P    377
20.4405027173031,-2.45126745136392,59.3241491085899,                 185P    378
21.1775410966161,-2.45126745136392,36.8241491085899,                 185P    379
0.545447187338624,-5.80126745136392,36.8241491085899,                185P    380
0.545447187338624,-5.80126745136392,35.2,-19.4999999999999;          185P    381
504,42,69,185,1,185,2,71,185,2,185,3,73,185,3,185,4,75,185,4,        187P    382
185,1,77,185,3,185,5,79,185,5,185,6,81,185,7,185,6,83,185,7,185,     187P    383
8,85,185,9,185,8,87,185,9,185,10,89,185,11,185,10,91,185,11,185,     187P    384
12,93,185,12,185,13,95,185,14,185,13,97,185,14,185,4,99,185,15,      187P    385
185,2,101,185,5,185,15,103,185,16,185,14,105,185,1,185,16,107,       187P    386
185,17,185,18,109,185,18,185,11,111,185,10,185,17,113,185,19,        187P    387
185,18,115,185,20,185,19,117,185,21,185,20,119,185,12,185,21,        187P    388
121,185,17,185,22,123,185,23,185,22,125,185,23,185,24,127,185,       187P    389
25,185,24,129,185,25,185,26,131,185,19,185,26,133,185,26,185,27,     187P    390
135,185,27,185,20,137,185,6,185,25,139,185,27,185,15,141,185,28,     187P    391
185,16,143,185,13,185,28,145,185,28,185,21,147,185,22,185,9,149,     187P    392
185,8,185,23,151,185,24,185,7;                                       187P    393
406,1,5HBody1;                                                       189P    394
314,26.6666666666667,58.8235294117647,28.2352941176471,23HPlasti     191P    395
c - Matte (Green);                                                   191P    396
314,62.7450980392157,62.7450980392157,62.7450980392157,13HSteel      193P    397
- Satin;                                                             193P    398
S      1G      3D    194P    398                                        T      1
